{"title":"The.Ultimate.Fighter.Brasil.2_Episode.4-WD_wrestlingforum.info.m","uid":8366404,"size":548242218,"categoryP":"video","categoryS":"other","magnet":"?xt=urn:btih:3eef67309f5d176643d1e6b278ea7e2a326233c3&amp;dn=The.Ultimate.Fighter.Brasil.2_Episode.4-WD_wrestlingforum.info.m&amp;tr=udp%3A%2F%2Ftracker.openbittorrent.com%3A80&amp;tr=udp%3A%2F%2Fopen.demonii.com%3A1337&amp;tr=udp%3A%2F%2Ftracker.coppersurfer.tk%3A6969&amp;tr=udp%3A%2F%2Fexodus.desync.com%3A6969","seeders":1,"leechers":0,"uploader":"johniedoe","files":1,"time":1365781603,"description":"The.Ultimate.Fighter.Brasil.2_ Episode.4-WD \n\nTUF Brasil 2: Episode 4 \t \t\t \t\n\n\n Apr 12, 2013 \n The fate of Yan Cabral is decided, the rivalry reaches a new level, and Team Nogueira is faced with another serious incident.\n\nFormat                                   : MPEG-4\nWebsite                                  : Wrestling Desires  &lt;a href=&quot; http://wrestlingforum.info/&quot; rel=&quot;nofollow&quot; target=&quot;_NEW&quot;&gt; http://wrestlingforum.info/&lt;/a&gt;   \nSource                                     : Official Site [webrip]\nFormat profile                           : Base Media / Version 2\nCodec ID                                 : mp42\nFile size                                : 523 MiB\nDuration                                 : 50mn 28s\nOverall bit rate mode                    : Variable\nOverall bit rate                         : 1 448 Kbps\nEncoded date                             : UTC 2013-04-12 08:25:16\nTagged date                              : UTC 2013-04-12 08:37:41\nWriting application                      : HandBrake 0.9.8 2012072200\n\nVideo\nID                                       : 1\nFormat                                   : AVC\nFormat/Info                              : Advanced Video Codec\nFormat profile                           : &lt;a class=&quot;__cf_email__&quot; href=&quot;/cdn-cgi/l/email-protection&quot; data-cfemail=&quot;115c70787f515d223f20&quot;&gt;[email&amp;#160;protected]&lt;/a&gt;&lt;script cf-hash='f9e31' type=&quot;text/javascript&quot;&gt;\n/* &lt;![CDATA[ */!function(){try{var t=&quot;currentScript&quot;in document?document.currentScript:function(){for(var t=document.getElementsByTagName(&quot;script&quot;),e=t.length;e--;)if(t[e].getAttribute(&quot;cf-hash&quot;))return t[e]}();if(t&amp;&amp;t.previousSibling){var e,r,n,i,c=t.previousSibling,a=c.getAttribute(&quot;data-cfemail&quot;);if(a){for(e=&quot;&quot;,r=parseInt(a.substr(0,2),16),n=2;a.length-n;n+=2)i=parseInt(a.substr(n,2),16)^r,e+=String.fromCharCode(i);e=document.createTextNode(e),c.parentNode.replaceChild(e,c)}}}catch(u){}}();/* ]]&gt; */&lt;/script&gt;\nFormat settings, CABAC                   : Yes\nFormat settings, ReFrames                : 4 frames\nCodec ID                                 : avc1\nCodec ID/Info                            : Advanced Video Coding\nDuration                                 : 50mn 28s\nBit rate mode                            : Variable\nBit rate                                 : 1 292 Kbps\nWidth                                    : 854 pixels\nHeight                                   : 480 pixels\nDisplay aspect ratio                     : 16:9\nFrame rate mode                          : Variable\nFrame rate                               : 29.970 fps\nMinimum frame rate                       : 14.925 fps\nMaximum frame rate                       : 30.303 fps\nColor space                              : YUV\nChroma subsampling                       : 4:2:0\nBit depth                                : 8 bits\nScan type                                : Progressive\nBits/(Pixel*Frame)                       : 0.105\nStream size                              : 467 MiB (89%)\nWriting library                          : x264 core 120\nEncoding settings                        : cabac=1 / ref=1 / deblock=1:0:0 / analyse=0x1:0x111 / me=hex / subme=2 / psy=1 / psy_rd=1.00:0.00 / mixed_ref=0 / me_range=16 / chroma_me=1 / trellis=0 / 8x8dct=0 / cqm=0 / deadzone=21,11 / fast_pskip=1 / chroma_qp_offset=0 / threads=6 / sliced_threads=0 / nr=0 / decimate=1 / interlaced=0 / bluray_compat=0 / constrained_intra=0 / bframes=3 / b_pyramid=2 / b_adapt=1 / b_bias=0 / direct=1 / weightb=1 / open_gop=0 / weightp=1 / keyint=300 / keyint_min=30 / scenecut=40 / intra_refresh=0 / rc_lookahead=10 / rc=crf / mbtree=1 / crf=20.0 / qcomp=0.60 / qpmin=3 / qpmax=69 / qpstep=4 / ip_ratio=1.40 / aq=1:1.00\nEncoded date                             : UTC 2013-04-12 08:25:16\nTagged date                              : UTC 2013-04-12 08:37:41\nColor primaries                          : BT.601 NTSC\nTransfer characteristics                 : BT.709\nMatrix coefficients                      : BT.601\n\nAudio\nID                                       : 2\nFormat                                   : AAC\nFormat/Info                              : Advanced Audio Codec\nFormat profile                           : LC\nCodec ID                                 : 40\nDuration                                 : 50mn 28s\nBit rate mode                            : Variable\nBit rate                                 : 149 Kbps\nMaximum bit rate                         : 231 Kbps\nChannel(s)                               : 2 channels\nChannel positions                        : Front: L R\nSampling rate                            : 44.1 KHz\nCompression mode                         : Lossy\nDelay relative to video                  : 100ms\nStream size                              : 53.9 MiB (10%)\nEncoded date                             : UTC 2013-04-12 08:25:16\nTagged date                              : UTC 2013-04-12 08:37:41","torrent":{"xt":"urn:btih:3eef67309f5d176643d1e6b278ea7e2a326233c3","amp;dn":"The.Ultimate.Fighter.Brasil.2_Episode.4-WD_wrestlingforum.info.m","amp;tr":["udp%3A%2F%2Ftracker.openbittorrent.com%3A80","udp%3A%2F%2Fopen.demonii.com%3A1337","udp%3A%2F%2Ftracker.coppersurfer.tk%3A6969","udp%3A%2F%2Fexodus.desync.com%3A6969"],"infoHash":"3eef67309f5d176643d1e6b278ea7e2a326233c3","infoHashBuffer":{"type":"Buffer","data":[62,239,103,48,159,93,23,102,67,209,230,178,120,234,126,42,50,98,51,195]},"announce":[],"urlList":[]}}